<?xml version="1.0" encoding="UTF-8" standalone="no"?>
<!-- Created with Inkscape (http://www.inkscape.org/) -->

<svg
   xmlns:dc="http://purl.org/dc/elements/1.1/"
   xmlns:cc="http://creativecommons.org/ns#"
   xmlns:rdf="http://www.w3.org/1999/02/22-rdf-syntax-ns#"
   xmlns:svg="http://www.w3.org/2000/svg"
   xmlns="http://www.w3.org/2000/svg"
   xmlns:sodipodi="http://sodipodi.sourceforge.net/DTD/sodipodi-0.dtd"
   xmlns:inkscape="http://www.inkscape.org/namespaces/inkscape"
   width="640"
   height="320"
   viewBox="0 0 169.33332 84.666664"
   version="1.1"
   id="svg8"
   inkscape:version="0.92.3 (2405546, 2018-03-11)"
   sodipodi:docname="CloudDiagram.svg"
   inkscape:export-filename="C:\Users\Matt\Documents\misc\Websites\mattstark256\assets\volumetric clouds\CloudDiagram.png"
   inkscape:export-xdpi="120"
   inkscape:export-ydpi="120">
  <defs
     id="defs2">
    <marker
       inkscape:stockid="Arrow2Mend"
       orient="auto"
       refY="0"
       refX="0"
       id="Arrow2Mend"
       style="overflow:visible"
       inkscape:isstock="true">
      <path
         id="path895"
         style="fill:#000000;fill-opacity:1;fill-rule:evenodd;stroke:#000000;stroke-width:0.625;stroke-linejoin:round;stroke-opacity:1"
         d="M 8.7185878,4.0337352 -2.2072895,0.01601326 8.7185884,-4.0017078 c -1.7454984,2.3720609 -1.7354408,5.6174519 -6e-7,8.035443 z"
         transform="scale(-0.6)"
         inkscape:connector-curvature="0" />
    </marker>
    <marker
       inkscape:stockid="Arrow1Send"
       orient="auto"
       refY="0"
       refX="0"
       id="Arrow1Send"
       style="overflow:visible"
       inkscape:isstock="true">
      <path
         id="path883"
         d="M 0,0 5,-5 -12.5,0 5,5 Z"
         style="fill:#000000;fill-opacity:1;fill-rule:evenodd;stroke:#000000;stroke-width:1.00000003pt;stroke-opacity:1"
         transform="matrix(-0.2,0,0,-0.2,-1.2,0)"
         inkscape:connector-curvature="0" />
    </marker>
    <marker
       inkscape:stockid="Arrow2Lend"
       orient="auto"
       refY="0"
       refX="0"
       id="Arrow2Lend"
       style="overflow:visible"
       inkscape:isstock="true">
      <path
         id="path889"
         style="fill:#000000;fill-opacity:1;fill-rule:evenodd;stroke:#000000;stroke-width:0.625;stroke-linejoin:round;stroke-opacity:1"
         d="M 8.7185878,4.0337352 -2.2072895,0.01601326 8.7185884,-4.0017078 c -1.7454984,2.3720609 -1.7354408,5.6174519 -6e-7,8.035443 z"
         transform="matrix(-1.1,0,0,-1.1,-1.1,0)"
         inkscape:connector-curvature="0" />
    </marker>
    <marker
       inkscape:stockid="Arrow1Lend"
       orient="auto"
       refY="0"
       refX="0"
       id="Arrow1Lend"
       style="overflow:visible"
       inkscape:isstock="true">
      <path
         id="path871"
         d="M 0,0 5,-5 -12.5,0 5,5 Z"
         style="fill:#000000;fill-opacity:1;fill-rule:evenodd;stroke:#000000;stroke-width:1.00000003pt;stroke-opacity:1"
         transform="matrix(-0.8,0,0,-0.8,-10,0)"
         inkscape:connector-curvature="0" />
    </marker>
    <marker
       inkscape:stockid="Arrow1Lstart"
       orient="auto"
       refY="0"
       refX="0"
       id="marker1204"
       style="overflow:visible"
       inkscape:isstock="true">
      <path
         id="path1202"
         d="M 0,0 5,-5 -12.5,0 5,5 Z"
         style="fill:#000000;fill-opacity:1;fill-rule:evenodd;stroke:#000000;stroke-width:1.00000003pt;stroke-opacity:1"
         transform="matrix(0.8,0,0,0.8,10,0)"
         inkscape:connector-curvature="0" />
    </marker>
    <marker
       inkscape:stockid="Arrow1Lstart"
       orient="auto"
       refY="0"
       refX="0"
       id="marker1176"
       style="overflow:visible"
       inkscape:isstock="true">
      <path
         id="path1174"
         d="M 0,0 5,-5 -12.5,0 5,5 Z"
         style="fill:#000000;fill-opacity:1;fill-rule:evenodd;stroke:#000000;stroke-width:1.00000003pt;stroke-opacity:1"
         transform="matrix(0.8,0,0,0.8,10,0)"
         inkscape:connector-curvature="0" />
    </marker>
    <marker
       inkscape:stockid="Arrow1Lstart"
       orient="auto"
       refY="0"
       refX="0"
       id="Arrow1Lstart"
       style="overflow:visible"
       inkscape:isstock="true">
      <path
         id="path868"
         d="M 0,0 5,-5 -12.5,0 5,5 Z"
         style="fill:#000000;fill-opacity:1;fill-rule:evenodd;stroke:#000000;stroke-width:1.00000003pt;stroke-opacity:1"
         transform="matrix(0.8,0,0,0.8,10,0)"
         inkscape:connector-curvature="0" />
    </marker>
    <marker
       inkscape:stockid="Arrow2Mend"
       orient="auto"
       refY="0"
       refX="0"
       id="Arrow2Mend-2"
       style="overflow:visible"
       inkscape:isstock="true">
      <path
         inkscape:connector-curvature="0"
         id="path895-1"
         style="fill:#000000;fill-opacity:1;fill-rule:evenodd;stroke:#000000;stroke-width:0.625;stroke-linejoin:round;stroke-opacity:1"
         d="M 8.7185878,4.0337352 -2.2072895,0.01601326 8.7185884,-4.0017078 c -1.7454984,2.3720609 -1.7354408,5.6174519 -6e-7,8.035443 z"
         transform="scale(-0.6)" />
    </marker>
    <marker
       inkscape:stockid="Arrow2Mend"
       orient="auto"
       refY="0"
       refX="0"
       id="Arrow2Mend-4"
       style="overflow:visible"
       inkscape:isstock="true">
      <path
         inkscape:connector-curvature="0"
         id="path895-0"
         style="fill:#000000;fill-opacity:1;fill-rule:evenodd;stroke:#000000;stroke-width:0.625;stroke-linejoin:round;stroke-opacity:1"
         d="M 8.7185878,4.0337352 -2.2072895,0.01601326 8.7185884,-4.0017078 c -1.7454984,2.3720609 -1.7354408,5.6174519 -6e-7,8.035443 z"
         transform="scale(-0.6)" />
    </marker>
    <marker
       inkscape:stockid="Arrow2Mend"
       orient="auto"
       refY="0"
       refX="0"
       id="Arrow2Mend-4-5"
       style="overflow:visible"
       inkscape:isstock="true">
      <path
         inkscape:connector-curvature="0"
         id="path895-0-5"
         style="fill:#000000;fill-opacity:1;fill-rule:evenodd;stroke:#000000;stroke-width:0.625;stroke-linejoin:round;stroke-opacity:1"
         d="M 8.7185878,4.0337352 -2.2072895,0.01601326 8.7185884,-4.0017078 c -1.7454984,2.3720609 -1.7354408,5.6174519 -6e-7,8.035443 z"
         transform="scale(-0.6)" />
    </marker>
  </defs>
  <sodipodi:namedview
     id="base"
     pagecolor="#ffffff"
     bordercolor="#666666"
     borderopacity="1.0"
     inkscape:pageopacity="1"
     inkscape:pageshadow="2"
     inkscape:zoom="1.4"
     inkscape:cx="427.70072"
     inkscape:cy="174.46125"
     inkscape:document-units="mm"
     inkscape:current-layer="layer1"
     showgrid="false"
     units="px"
     inkscape:window-width="1920"
     inkscape:window-height="1017"
     inkscape:window-x="-8"
     inkscape:window-y="-8"
     inkscape:window-maximized="1"
     inkscape:snap-nodes="true"
     inkscape:snap-global="false" />
  <metadata
     id="metadata5">
    <rdf:RDF>
      <cc:Work
         rdf:about="">
        <dc:format>image/svg+xml</dc:format>
        <dc:type
           rdf:resource="http://purl.org/dc/dcmitype/StillImage" />
        <dc:title />
      </cc:Work>
    </rdf:RDF>
  </metadata>
  <g
     inkscape:label="Layer 1"
     inkscape:groupmode="layer"
     id="layer1"
     transform="translate(0,-212.3333)"
     style="display:inline">
    <path
       style="fill:#acacac;fill-opacity:1;stroke:none;stroke-width:0.26458332px;stroke-linecap:butt;stroke-linejoin:miter;stroke-opacity:1"
       d="m 84.383184,259.72207 2.740326,-4.1105 2.693082,-1.41741 3.307289,0.56697 2.315107,-1.08668 2.645833,-4.67746 1.795391,-4.86644 3.354538,-3.35455 4.06324,-1.60639 4.34673,0.51972 3.827,2.55133 2.17337,3.96875 2.12611,1.13393 2.5041,-0.42522 2.97656,-1.32291 4.86644,0.14174 5.10268,2.50409 4.63021,4.25223 4.63021,7.65402 -4.96094,2.69308 -8.59896,1.6064 h -6.14211 l -3.68527,-0.51972 -2.97656,0.51972 -2.50409,1.55915 -6.70908,0.89769 -6.94531,-1.08668 -3.496283,-2.17336 -2.267857,-1.65365 -5.43341,-0.42522 -2.976562,-0.14174 z"
       id="path926"
       inkscape:connector-curvature="0"
       sodipodi:nodetypes="cccccccccccccccccccccccccccccccc" />
    <path
       style="fill:#acacac;fill-opacity:1;stroke:none;stroke-width:0.26458332px;stroke-linecap:butt;stroke-linejoin:miter;stroke-opacity:1"
       d="m 19.722592,259.71251 2.861683,-8.21518 4.351235,-6.93755 5.584983,-2.95953 5.765866,0.34219 2.943323,1.55973 2.201616,2.00452 1.748715,3.20248 1.438948,4.2615 1.422736,2.46888 1.35256,0.43194 1.729146,-1.144 1.929597,-1.15882 3.006784,-0.40091 3.608138,1.80407 2.138157,2.60588 1.269529,2.33861 -2.271792,1.5368 -5.278573,0.73499 -4.476763,-0.80181 -2.071341,-0.0668 -2.00452,0.86862 -2.00452,1.87089 -4.610402,1.5368 -7.683997,0.26727 -5.20365,-0.89966 -4.049574,-1.87564 z"
       id="path924"
       inkscape:connector-curvature="0"
       sodipodi:nodetypes="cccccccccccccccccccccccccccc" />
    <flowRoot
       xml:space="preserve"
       id="flowRoot826"
       style="font-style:normal;font-weight:normal;font-size:40px;line-height:1.25;font-family:sans-serif;letter-spacing:0px;word-spacing:0px;fill:#000000;fill-opacity:1;stroke:none"
       transform="matrix(0.26458333,0,0,0.26458333,0,169.99996)"><flowRegion
         id="flowRegion828"><rect
           id="rect830"
           width="206.42857"
           height="52.857143"
           x="352.14285"
           y="80" /></flowRegion><flowPara
         id="flowPara832" /></flowRoot>    <text
       xml:space="preserve"
       style="font-style:normal;font-weight:normal;font-size:4.93888903px;line-height:1.25;font-family:sans-serif;letter-spacing:0px;word-spacing:0px;fill:#000000;fill-opacity:1;stroke:none;stroke-width:0.28854114"
       x="34.711174"
       y="225.24922"
       id="text836"><tspan
         sodipodi:role="line"
         x="34.711174"
         y="225.24922"
         style="font-size:4.93888903px;stroke-width:0.28854114"
         id="tspan856">Top surface</tspan></text>
    <text
       xml:space="preserve"
       style="font-style:normal;font-weight:normal;font-size:4.93888903px;line-height:1.25;font-family:sans-serif;letter-spacing:0px;word-spacing:0px;display:inline;fill:#000000;fill-opacity:1;stroke:none;stroke-width:0.28854114"
       x="12.867842"
       y="286.40323"
       id="text836-3"><tspan
         sodipodi:role="line"
         id="tspan834-1"
         x="12.867842"
         y="286.40323"
         style="font-size:4.93888903px;stroke-width:0.28854114">Bottom surface</tspan></text>
    <path
       style="fill:none;stroke:#000000;stroke-width:0.57708234;stroke-linecap:butt;stroke-linejoin:miter;stroke-miterlimit:4;stroke-dasharray:none;stroke-opacity:1;marker-end:url(#Arrow2Mend)"
       d="m 45.811144,227.70215 -6.407545,11.73311"
       id="path866"
       inkscape:connector-curvature="0"
       sodipodi:nodetypes="cc" />
    <path
       style="display:inline;fill:none;stroke:#000000;stroke-width:0.5770824;stroke-linecap:butt;stroke-linejoin:miter;stroke-miterlimit:4;stroke-dasharray:none;stroke-opacity:1;marker-end:url(#Arrow2Mend-2)"
       d="m 29.873611,281.37284 1.234465,-13.22582"
       id="path866-2"
       inkscape:connector-curvature="0"
       sodipodi:nodetypes="cc" />
    <text
       xml:space="preserve"
       style="font-style:normal;font-weight:normal;font-size:4.93888903px;line-height:1.25;font-family:sans-serif;letter-spacing:0px;word-spacing:0px;display:inline;fill:#000000;fill-opacity:1;stroke:none;stroke-width:0.28854114"
       x="99.673538"
       y="283.40524"
       id="text836-1-8"><tspan
         sodipodi:role="line"
         x="99.673538"
         y="283.40524"
         style="font-size:4.93888903px;stroke-width:0.28854114"
         id="tspan856-6-3">Rendered volume</tspan></text>
    <path
       style="display:inline;fill:none;stroke:#000000;stroke-width:0.5770824;stroke-linecap:butt;stroke-linejoin:miter;stroke-miterlimit:4;stroke-dasharray:none;stroke-opacity:1;marker-end:url(#Arrow2Mend-4)"
       d="m 118.17905,278.14956 -6.59524,-22.46498"
       id="path866-1"
       inkscape:connector-curvature="0"
       sodipodi:nodetypes="cc" />
    <path
       style="fill:none;stroke:#000000;stroke-width:0.8;stroke-linecap:butt;stroke-linejoin:miter;stroke-miterlimit:4;stroke-dasharray:none;stroke-opacity:1"
       d="m 10.394345,268.27378 c 4.913691,-0.94495 8.693452,-5.48066 10.488839,-11.52828 1.795387,-6.04762 3.908597,-10.62125 7.425889,-12.98482 3.517293,-2.36358 6.255495,-2.72463 9.944804,-1.65029 3.689309,1.07434 5.874842,4.14627 7.103265,7.45357 1.228423,3.3073 2.362349,8.31547 5.38616,5.57514 3.023811,-2.74033 5.291666,-1.79538 6.803572,-1.32291 1.511906,0.47247 4.630207,2.74032 6.425594,8.78794 1.795387,6.04762 3.811573,10.46699 9.260417,11.52828 5.448844,1.06129 8.12649,-6.42559 10.299853,-11.90625 2.173363,-5.48066 4.441219,-8.78796 8.126487,-7.55953 3.685268,1.22843 5.85863,-3.77975 6.992559,-7.37053 1.133929,-3.59078 4.063246,-7.08706 8.315476,-7.84301 4.25223,-0.75595 8.22098,1.6064 9.63839,4.8192 1.41741,3.2128 3.59078,3.87426 6.14212,2.36235 2.55134,-1.51191 6.90952,-1.6408 11.53973,1.09953 4.63021,2.74033 7.33952,6.62704 10.38288,12.98008 3.04336,6.35304 7.46503,10.96131 13.79614,13.13467"
       id="path907"
       inkscape:connector-curvature="0"
       sodipodi:nodetypes="czzzzzzzzzzzzzzzzc" />
    <path
       style="display:inline;fill:none;stroke:#000000;stroke-width:0.8;stroke-linecap:butt;stroke-linejoin:miter;stroke-miterlimit:4;stroke-dasharray:none;stroke-opacity:1"
       d="m 10.678349,257.07427 c 4.920807,0.31455 8.706042,1.82437 10.504029,3.83748 1.797987,2.0131 3.914257,3.53555 7.436642,4.32232 3.522386,0.78678 6.264554,0.90696 9.959205,0.54934 3.694652,-0.35762 5.883349,-1.38019 7.113552,-2.48111 1.230202,-1.10092 2.365769,-2.76801 5.393959,-1.85582 3.028188,0.91218 5.299327,0.59763 6.813425,0.44036 1.514095,-0.15727 4.63691,-0.91218 6.434898,-2.92529 1.797986,-2.0131 3.817092,-3.4842 9.273827,-3.83748 5.456733,-0.35327 8.138257,2.13892 10.314769,3.9633 2.176508,1.82438 4.44765,2.92529 8.138254,2.51638 3.690604,-0.40891 5.867112,1.25819 7.002684,2.45347 1.135567,1.19528 4.069127,2.35911 8.327517,2.61074 4.25838,0.25164 8.23288,-0.53473 9.65234,-1.60419 1.41947,-1.06946 3.59598,-1.28965 6.15102,-0.78637 2.55503,0.50328 6.91952,0.54618 11.55644,-0.366 4.63691,-0.91219 7.35015,-2.20598 10.39791,-4.32075 3.04777,-2.11477 7.47584,-3.64875 13.81612,-4.37221"
       id="path907-1"
       inkscape:connector-curvature="0"
       sodipodi:nodetypes="czzzzzzzzzzzzzzzzc" />
  </g>
</svg>
